<svg width="105" height="104" viewBox="0 0 105 104" fill="none" xmlns="http://www.w3.org/2000/svg">
<path d="M22.4496 0.560562C12.0497 2.40229 3.68221 10.0262 1.04441 20.0486C0.0930659 23.6679 0.0282018 25.788 0.136309 53.8637C0.201173 79.6479 0.222794 80.2475 0.655222 82.2391C3.05519 92.9683 10.7524 100.614 21.6928 103.141C23.1198 103.462 24.936 103.526 36.6332 103.59C48.7412 103.676 49.9952 103.655 50.3195 103.333C50.6438 103.012 50.6655 98.879 50.6655 52.0219C50.6655 17.286 50.6006 0.924629 50.4492 0.624809C50.233 0.239334 49.8655 0.217918 37.1953 0.239334C26.9036 0.26075 23.8117 0.324997 22.4496 0.560562ZM42.0169 51.9577V95.3454L33.217 95.2383C25.109 95.1527 24.2441 95.1098 22.6225 94.7029C15.6605 92.9255 10.4929 87.6144 9.04431 80.6972C8.56864 78.5343 8.56864 25.2526 9.02269 23.1325C10.32 17.1147 14.5361 12.1249 20.2226 9.87629C23.0766 8.74127 24.3955 8.61278 33.6494 8.59136L42.0169 8.56995V51.9577Z" fill="black"/>
<path d="M24.3097 21.6548C22.9475 21.9118 20.8719 22.9397 19.7692 23.9034C17.499 25.8522 16.3746 28.6148 16.5476 31.87C16.6341 33.5618 16.7422 34.0115 17.4341 35.3821C18.4503 37.4594 19.9854 38.9799 22.0827 40.0078C23.5313 40.7146 23.8989 40.8002 25.7799 40.8645C27.488 40.9287 28.0934 40.8645 29.2394 40.479C33.9312 38.9157 36.7636 34.397 35.9636 29.7713C35.0339 24.2675 29.7583 20.584 24.3097 21.6548Z" fill="black"/>
<path d="M61.1953 0.367828C61.1088 0.432076 61.0439 23.6464 61.0439 51.9577C61.0439 98.6648 61.0656 103.398 61.3899 103.526C61.9737 103.74 78.7519 103.655 80.8275 103.44C89.6058 102.455 97.3462 97.1657 101.562 89.3062C102.103 88.2997 102.816 86.6079 103.184 85.5585C104.546 81.5324 104.503 82.6032 104.503 51.8292C104.503 27.2656 104.46 23.6036 104.157 22.0403C102.016 10.8828 93.4328 2.46654 82.1464 0.539146C80.6329 0.282166 78.2978 0.217918 70.7736 0.217918C65.5844 0.217918 61.2602 0.282166 61.1953 0.367828ZM84.2869 47.0107C87.6599 47.8887 90.4274 50.4372 91.5517 53.6923C92.2652 55.7054 92.2436 58.6607 91.5301 60.5024C90.2112 63.8861 87.6166 66.2632 84.2869 67.1412C78.8816 68.5332 73.1303 65.2995 71.5519 59.9885C71.0763 58.3609 71.0979 55.6197 71.6384 53.9493C73.26 48.7025 78.8816 45.6187 84.2869 47.0107Z" fill="black"/>
</svg>
